# xmcd
#
# Track frame offsets: 
#        150
#        6459
#        17405
#        34885
#        50256
#        66961
#        85815
#        101855
#        118182
#        140018
#        154556
#
# Disc length: 2144 seconds
#
# Revision: 0
# Processed by: cddbd v1.5.2PL0 Copyright (c) Steve Scherf et al.
# Submitted via: ExactAudioCopyFreeDBPlugin 1.0
#
DISCID=90085e0b
DTITLE=Keyshia Cole - 11:11 Reset
DYEAR=2017
DGENRE=R&B
TTITLE0=Cole World (Intro) (feat. DJ Khaled)
TTITLE1=Unbothered
TTITLE2=You (feat. Remy Ma and French Montana)
TTITLE3=Incapable
TTITLE4=Best Friend
TTITLE5=Vault
TTITLE6=Act Right (feat. Young Thug)
TTITLE7=Right Time
TTITLE8=Emotional
TTITLE9=Ride (feat. Kamaiyah)
TTITLE10=Cole World (Outro) (feat. Too $hort)
EXTD=
EXTT0=
EXTT1=
EXTT2=
EXTT3=
EXTT4=
EXTT5=
EXTT6=
EXTT7=
EXTT8=
EXTT9=
EXTT10=
PLAYORDER=
